<svg width="23" height="25" viewBox="0 0 23 25" fill="none" xmlns="http://www.w3.org/2000/svg">
<path d="M8.03157 22.7256V19.0242C8.03157 18.0793 8.80315 17.3133 9.75495 17.3133H13.2342C13.6913 17.3133 14.1296 17.4936 14.4528 17.8144C14.776 18.1353 14.9576 18.5704 14.9576 19.0242V22.7256C14.9547 23.1184 15.1099 23.4962 15.3887 23.775C15.6674 24.0537 16.0468 24.2105 16.4425 24.2105H18.8162C19.9248 24.2134 20.989 23.7782 21.7739 23.001C22.5589 22.2238 23 21.1684 23 20.0679V9.52304C23 8.63403 22.603 7.79076 21.9161 7.22039L13.8412 0.818157C12.4365 -0.304373 10.424 -0.268129 9.06126 0.904238L1.17059 7.22039C0.451212 7.77394 0.0212475 8.61972 0 9.52304V20.0571C0 22.351 1.87315 24.2105 4.18379 24.2105H6.5033C7.32517 24.2105 7.9931 23.5523 7.99906 22.7364L8.03157 22.7256Z" fill="white"/>
</svg>
